<svg xmlns="http://www.w3.org/2000/svg" xmlns:xlink="http://www.w3.org/1999/xlink" width="236" height="102.001" viewBox="0 0 236 102.001"><defs><style>.a{fill:url(#a);}</style><linearGradient id="a" y1="0.5" x2="1" y2="0.5" gradientUnits="objectBoundingBox"><stop offset="0" stop-color="#9e3b83"/><stop offset="1" stop-color="#2d1839"/></linearGradient></defs><path class="a" d="M236,102H0V.949A45.815,45.815,0,0,0,1.957,11.295,63.034,63.034,0,0,0,14.925,34.464C28.18,49.779,56.455,68.643,115.888,71.541c4.673.21,9.417.316,14.1.316a316.074,316.074,0,0,0,40.728-2.645,107.68,107.68,0,0,1,11.747-.84c.263,0,.532-.005.8-.005a54.537,54.537,0,0,1,15,2.112,57.552,57.552,0,0,1,14.024,6.159,63.192,63.192,0,0,1,12.434,9.938,71.027,71.027,0,0,1,10.231,13.451c.321.546.662,1.142,1.014,1.77L235.968,0,0,0H236V102Z" transform="translate(0)"/></svg>