<svg xmlns="http://www.w3.org/2000/svg" width="28.5" height="29" viewBox="0 0 28.5 29"><defs><style>.a{fill:#517cbe;}.b{fill:#32a853;}.c{fill:#fbbc0c;}.d{fill:#e84436;}</style></defs><g transform="translate(0 -0.02)"><path class="a" d="M522.611,423.755a12.421,12.421,0,0,0-.306-2.965H508.69v5.381h7.992a7.083,7.083,0,0,1-2.965,4.7l-.027.18,4.3,3.336.3.03a14.173,14.173,0,0,0,4.32-10.666" transform="translate(-494.111 -408.913)"/><path class="b" d="M133.324,597.6a13.821,13.821,0,0,0,9.6-3.512l-4.576-3.545a8.585,8.585,0,0,1-5.027,1.45,8.729,8.729,0,0,1-8.249-6.026l-.17.015-4.476,3.464-.058.163a14.489,14.489,0,0,0,12.954,7.991" transform="translate(-118.823 -568.583)"/><path class="c" d="M80.251,312.2a8.923,8.923,0,0,1-.483-2.869,9.394,9.394,0,0,1,.467-2.869l-.008-.192-4.532-3.519-.148.071a14.469,14.469,0,0,0,0,13.018l4.7-3.64" transform="translate(-74 -294.81)"/><path class="d" d="M133.369,70.936A8.078,8.078,0,0,1,139,73.1l4.107-4a14.011,14.011,0,0,0-9.733-3.769,14.546,14.546,0,0,0-13,7.991l4.7,3.64a8.792,8.792,0,0,1,8.294-6.026" transform="translate(-118.823 -65.31)"/></g></svg>