<svg xmlns="http://www.w3.org/2000/svg" xmlns:xlink="http://www.w3.org/1999/xlink" width="235" height="101.799" viewBox="0 0 235 101.799"><defs><style>.a{fill:url(#a);}</style><linearGradient id="a" y1="0.5" x2="1" y2="0.5" gradientUnits="objectBoundingBox"><stop offset="0" stop-color="#9e3b83"/><stop offset="1" stop-color="#2d1839"/></linearGradient></defs><path class="a" d="M235.032,101.8l0,0c-.346-.62-.685-1.215-1.01-1.77A70.98,70.98,0,0,0,223.83,86.576a62.957,62.957,0,0,0-12.383-9.938,57.179,57.179,0,0,0-13.966-6.159,54.091,54.091,0,0,0-14.939-2.112c-.265,0-.532,0-.8.005a106.772,106.772,0,0,0-11.7.84,313.483,313.483,0,0,1-40.561,2.645c-4.663,0-9.388-.106-14.043-.316C56.255,68.643,28.1,49.779,14.895,34.464A63.1,63.1,0,0,1,1.981,11.3,46.009,46.009,0,0,1,.032.949V0l235,0V101.8Z" transform="translate(-0.032 0)"/></svg>